<svg xmlns="http://www.w3.org/2000/svg" version="1.1" xmlns:xlink="http://www.w3.org/1999/xlink" xmlns:svgjs="http://svgjs.com/svgjs" width="512" height="512" x="0" y="0" viewBox="0 0 64 64" style="enable-background:new 0 0 512 512" xml:space="preserve" class="">
    <g>
        <g xmlns="http://www.w3.org/2000/svg">
            <g>
                <path d="m62 7.299-1.321-.48.595-1.273-3.82-3.82-1.273.595-.48-1.321h-5.401l-.48 1.321-1.273-.595-3.82 3.82.595 1.273-1.322.48v5.401l1.321.48-.595 1.273 3.82 3.82 1.273-.595.48 1.322h5.401l.48-1.321 1.273.595 3.82-3.82-.595-1.273 1.322-.48zm-9 6.701c-2.209 0-4-1.791-4-4s1.791-4 4-4 4 1.791 4 4-1.791 4-4 4z" fill="#555657" data-original="#555657"></path>
            </g>
            <g>
                <g>
                    <path d="m35 40h8v22h-8z" fill="#555657"></path>
                </g>
                <g>
                    <path d="m49 22h8v40h-8z" fill="#555657"></path>
                </g>
                <g>
                    <path d="m21 32h8v30h-8z" fill="#555657"></path>
                </g>
                <g>
                    <path d="m7 44h8v18h-8z" fill="#555657"></path>
                </g>
            </g>
            <g>
                <path d="m53 15c2.757 0 5-2.243 5-5s-2.243-5-5-5-5 2.243-5 5 2.243 5 5 5zm0-8c1.654 0 3 1.346 3 3s-1.346 3-3 3-3-1.346-3-3 1.346-3 3-3z" fill="#717579" data-original="#717579"></path>
                <path d="m1 61h62v2h-62z" fill="#717579"></path>
                <path d="m14.47 32.413c-.901-.871-2.121-1.413-3.47-1.413-2.757 0-5 2.243-5 5s2.243 5 5 5 5-2.243 5-5c0-.68-.139-1.328-.386-1.92l6.486-6.023c.82.588 1.817.943 2.9.943 1.493 0 2.82-.671 3.737-1.713l5.534 3.162c-.162.492-.271 1.006-.271 1.551 0 2.757 2.243 5 5 5s5-2.243 5-5c0-1.404-.586-2.67-1.521-3.579l6.958-10.564-.891.416-1.072-1.072-6.681 10.144c-.559-.215-1.16-.345-1.793-.345-1.493 0-2.82.671-3.737 1.713l-5.534-3.162c.162-.492.271-1.007.271-1.551 0-2.757-2.243-5-5-5s-5 2.243-5 5c0 .95.281 1.83.743 2.588zm24.53-3.413c1.654 0 3 1.346 3 3s-1.346 3-3 3-3-1.346-3-3 1.346-3 3-3zm-28 10c-1.654 0-3-1.346-3-3s1.346-3 3-3 3 1.346 3 3-1.346 3-3 3zm14-18c1.654 0 3 1.346 3 3s-1.346 3-3 3-3-1.346-3-3 1.346-3 3-3z" fill="#717579" data-original="#717579"></path>
            </g>
        </g>
    </g>
</svg>