<svg xmlns="http://www.w3.org/2000/svg" version="1.1" xmlns:xlink="http://www.w3.org/1999/xlink" xmlns:svgjs="http://svgjs.com/svgjs" width="512" height="512" x="0" y="0" viewBox="0 0 300 300" style="enable-background:new 0 0 512 512" xml:space="preserve" class="">
    <g>
        <g xmlns="http://www.w3.org/2000/svg">
            <!-- background -->
            <circle cx="116" cy="122" fill="#555657" r="86" data-original="#555657" style="" class=""></circle>
            <circle cx="116" cy="122" fill="#555657" r="86" data-original="#555657" style="" class=""></circle>
            <!-- background -->
            <g fill="red">
                <!-- x -->
                <path d="m155.656 81.656c-1.023 0-2.047-.391-2.828-1.172l-11.312-11.312c-1.562-1.562-1.562-4.094 0-5.656s4.094-1.562 5.656 0l11.312 11.312c1.562 1.562 1.562 4.094 0 5.656-.781.782-1.804 1.172-2.828 1.172z" fill="#717579" data-original="red" style="" class=""></path>
                <path d="m144.344 81.656c-1.023 0-2.047-.391-2.828-1.172-1.562-1.562-1.562-4.094 0-5.656l11.312-11.312c1.562-1.562 4.094-1.562 5.656 0s1.562 4.094 0 5.656l-11.312 11.312c-.781.782-1.805 1.172-2.828 1.172z" fill="#717579" data-original="red" style="" class=""></path>
                <!-- x -->
                <!-- dots -->
                <circle cx="194" cy="88" r="4" fill="#717579" data-original="#717579" style="" class=""></circle>
                <circle cx="182" cy="44" r="4" fill="#717579" data-original="#717579" style="" class=""></circle>
                <!-- dots -->
            </g>
            <g>
                <!-- footer -->
                <path d="m242 260h-160c-6.627 0-12-5.373-12-12v-8h184v8c0 6.627-5.373 12-12 12z" fill="#555657" data-original="#555657" style="" class=""></path>
                <path d="m242 264h-160c-8.822 0-16-7.178-16-16v-8c0-2.209 1.791-4 4-4h184c2.209 0 4 1.791 4 4v8c0 8.822-7.178 16-16 16zm-168-20v4c0 4.412 3.588 8 8 8h160c4.412 0 8-3.588 8-8v-4z" fill="#555657" data-original="#555657" style="" class=""></path>
                <!-- footer -->
            </g>
            <g>
                <!-- path -->
                <path d="m110.76 248h140.286c8.259 0 14.955-6.546 14.955-14.621v-109.379c0-8.837-7.163-16-16-16h-116.858l-8.875-18.408c-2.678-3.666-7.003-5.842-11.611-5.842h-44.568c-7.781 0-14.089 6.167-14.089 13.774v9.69 17.598 108.567c0 8.075 6.695 14.621 14.955 14.621h21.147" fill="#272829" data-original="#272829" style="" class=""></path>
                <path d="m251.045 252h-140.285c-2.209 0-4-1.791-4-4s1.791-4 4-4h140.285c6.041 0 10.955-4.764 10.955-10.621v-109.379c0-6.617-5.383-12-12-12h-116.857c-1.535 0-2.936-.879-3.604-2.264l-8.703-18.051c-1.934-2.471-4.967-3.936-8.18-3.936h-44.568c-5.563.001-10.088 4.386-10.088 9.774v135.855c0 5.858 4.914 10.622 10.955 10.622h21.146c2.209 0 4 1.791 4 4s-1.791 4-4 4h-21.146c-10.451 0-18.955-8.354-18.955-18.621v-135.856c0-9.801 8.113-17.773 18.088-17.773h44.568c5.871 0 11.42 2.797 14.842 7.482.143.195.268.404.373.623l7.783 16.145h114.346c11.027 0 20 8.973 20 20v109.379c0 10.267-8.504 18.621-18.955 18.621z" fill="#717579" data-original="#717579" style="" class=""></path>
                <!-- path -->
            </g>
            <!-- path-border-detail -->
            <path d="m134 112h-28c-2.209 0-4-1.791-4-4s1.791-4 4-4h28c2.209 0 4 1.791 4 4s-1.791 4-4 4z" fill="#717579" data-original="#717579" style="" class=""></path>
            <!-- path-border-detail -->
        </g>
    </g>
</svg>